<?xml version="1.0" encoding="UTF-8" standalone="no"?>
<svg
   viewBox="0 0 90 20"
   preserveAspectRatio="xMidYMid meet"
   focusable="false"
   style="pointer-events: none; display: block; width: 100%; height: 100%;"
   class="style-scope yt-icon"
   version="1.1"
   id="svg27"
   sodipodi:docname="me_tube.svg"
   inkscape:version="1.2.1 (9c6d41e410, 2022-07-14)"
   xmlns:inkscape="http://www.inkscape.org/namespaces/inkscape"
   xmlns:sodipodi="http://sodipodi.sourceforge.net/DTD/sodipodi-0.dtd"
   xmlns="http://www.w3.org/2000/svg"
   xmlns:svg="http://www.w3.org/2000/svg">
  <defs
     id="defs31" />
  <sodipodi:namedview
     id="namedview29"
     pagecolor="#ffffff"
     bordercolor="#999999"
     borderopacity="1"
     inkscape:showpageshadow="0"
     inkscape:pageopacity="0"
     inkscape:pagecheckerboard="0"
     inkscape:deskcolor="#d1d1d1"
     showgrid="false"
     inkscape:zoom="11.313709"
     inkscape:cx="59.662135"
     inkscape:cy="5.2591067"
     inkscape:window-width="1920"
     inkscape:window-height="1002"
     inkscape:window-x="0"
     inkscape:window-y="0"
     inkscape:window-maximized="1"
     inkscape:current-layer="g25" />
  <g
     viewBox="0 0 90 20"
     preserveAspectRatio="xMidYMid meet"
     class="style-scope yt-icon"
     id="g25">
    <path
       d="M 27.9727,3.12324 C 27.6435,1.89323 26.6768,0.926623 25.4468,0.597366 23.2197,2.24288e-7 14.285,0 14.285,0 14.285,0 5.35042,2.24288e-7 3.12323,0.597366 1.89323,0.926623 0.926623,1.89323 0.597366,3.12324 2.24288e-7,5.35042 0,10 0,10 c 0,0 2.24288e-7,4.6496 0.597366,6.8768 0.329257,1.23 1.295864,2.1966 2.525864,2.5258 C 5.35042,20 14.285,20 14.285,20 c 0,0 8.9347,0 11.1618,-0.5974 1.23,-0.3292 2.1967,-1.2958 2.5259,-2.5258 C 28.5701,14.6496 28.5701,10 28.5701,10 c 0,0 -0.0024,-4.64958 -0.5974,-6.87676 z"
       fill="#ff0000"
       class="style-scope yt-icon"
       id="path2"
       style="fill:#5050ff;fill-opacity:1" />
    <path
       d="m 11.4253,14.2854 7.4224,-4.285 -7.4224,-4.28507 z"
       fill="#ffffff"
       class="style-scope yt-icon"
       id="path4" />
    <path
       d="M 62.4755,3.68758 H 59.6768 V 18.5629 H 56.9181 V 3.68758 H 54.1194 V 1.42041 h 8.3561 z"
       class="style-scope yt-icon"
       id="path14"
       style="fill:#ffffff" />
    <path
       d="m 69.2768,18.5634 h -2.206 L 66.8262,17.03 h -0.0611 c -0.5997,1.1571 -1.4981,1.7356 -2.6976,1.7356 -0.8302,0 -1.444,-0.2728 -1.8391,-0.816 -0.3951,-0.5457 -0.5927,-1.397 -0.5927,-2.5541 V 6.03751 h 2.8199 v 9.19329 c 0,0.5598 0.0611,0.9572 0.1834,1.1948 0.1223,0.2375 0.3269,0.3574 0.6139,0.3574 0.2445,0 0.4797,-0.0752 0.7055,-0.2257 0.2258,-0.1506 0.3904,-0.3411 0.5009,-0.5715 V 6.03516 h 2.8175 z"
       class="style-scope yt-icon"
       id="path16"
       style="fill:#ffffff" />
    <path
       d="M 78.609,8.0387 C 78.4373,7.24849 78.1621,6.67699 77.7812,6.32186 77.4002,5.96674 76.8757,5.79035 76.2078,5.79035 c -0.5174,0 -1.0019,0.14581 -1.4511,0.43979 -0.4492,0.29398 -0.7973,0.67733 -1.0419,1.15475 H 73.6937 V 0.785645 H 70.9773 V 18.5608 h 2.3283 l 0.2869,-1.1853 h 0.0612 c 0.2187,0.4233 0.5456,0.7549 0.9807,1.0019 0.4351,0.2446 0.9196,0.3669 1.4511,0.3669 0.9525,0 1.6557,-0.4398 2.1049,-1.3171 0.4492,-0.8796 0.6749,-2.2507 0.6749,-4.118 v -1.9826 c 0,-1.39938 -0.087,-2.49768 -0.2563,-3.2879 z m -2.5847,5.1105 c 0,0.9125 -0.0376,1.6275 -0.1129,2.1449 -0.0752,0.5174 -0.1999,0.8867 -0.3786,1.103 -0.1764,0.2187 -0.4163,0.3269 -0.715,0.3269 -0.2328,0 -0.4468,-0.0541 -0.6444,-0.1646 -0.1975,-0.1082 -0.3574,-0.2728 -0.4797,-0.4892 V 8.96062 c 0.094,-0.34102 0.2587,-0.61853 0.4915,-0.83725 0.2305,-0.21872 0.4845,-0.32691 0.7549,-0.32691 0.287,0 0.508,0.11289 0.6633,0.33632 0.1575,0.22577 0.2657,0.60207 0.3269,1.13358 0.0611,0.53151 0.0917,1.28644 0.0917,2.26714 v 1.6157 z"
       class="style-scope yt-icon"
       id="path18"
       style="fill:#ffffff" />
    <path
       d="m 82.8657,13.8712 c 0,0.8043 0.0235,1.4064 0.0706,1.8086 0.047,0.4021 0.1458,0.6938 0.2963,0.8796 0.1505,0.1834 0.381,0.2751 0.6938,0.2751 0.421,0 0.7126,-0.1646 0.8678,-0.4915 0.1576,-0.3269 0.2423,-0.8725 0.2564,-1.6345 l 2.4318,0.1434 c 0.0141,0.1082 0.0211,0.2587 0.0211,0.4492 0,1.1571 -0.3175,2.0226 -0.9501,2.5941 -0.6326,0.5715 -1.5287,0.8584 -2.6858,0.8584 -1.3899,0 -2.3636,-0.4351 -2.921,-1.3076 -0.5597,-0.8725 -0.8372,-2.2201 -0.8372,-4.0452 v -2.1872 c 0,-1.87908 0.2893,-3.25255 0.8678,-4.11802 0.5786,-0.86548 1.5687,-1.29822 2.9727,-1.29822 0.9666,0 1.7098,0.17639 2.2272,0.53152 0.5174,0.35512 0.8819,0.90545 1.0936,1.65569 0.2117,0.75023 0.3175,1.78504 0.3175,3.10673 v 2.1449 H 82.8657 Z M 83.2232,7.96811 C 83.0797,8.14449 82.9857,8.43377 82.9363,8.83593 82.8892,9.2381 82.8657,9.84722 82.8657,10.6657 v 0.8984 h 2.0626 V 10.6657 C 84.9283,9.86133 84.9001,9.25221 84.846,8.83593 84.7919,8.41966 84.6931,8.12803 84.5496,7.95635 84.4062,7.78702 84.1851,7.7 83.8864,7.7 83.5854,7.70235 83.3643,7.79172 83.2232,7.96811 Z"
       class="style-scope yt-icon"
       id="path20"
       style="fill:#ffffff" />
    <path
       d="m 50.439182,13.68883 c 0,0.8043 0.0235,1.4064 0.0706,1.8086 0.047,0.4021 0.1458,0.6938 0.2963,0.8796 0.1505,0.1834 0.381,0.2751 0.6938,0.2751 0.421,0 0.7126,-0.1646 0.8678,-0.4915 0.1576,-0.3269 0.2423,-0.8725 0.2564,-1.6345 l 2.4318,0.1434 c 0.0141,0.1082 0.0211,0.2587 0.0211,0.4492 0,1.1571 -0.3175,2.0226 -0.9501,2.5941 -0.6326,0.5715 -1.5287,0.8584 -2.6858,0.8584 -1.3899,0 -2.3636,-0.4351 -2.921,-1.3076 -0.5597,-0.8725 -0.8372,-2.2201 -0.8372,-4.0452 v -2.1872 c 0,-1.8790793 0.2893,-3.2525493 0.8678,-4.1180193 0.5786,-0.86548 1.5687,-1.29822 2.9727,-1.29822 0.9666,0 1.7098,0.17639 2.2272,0.53152 0.5174,0.35512 0.8819,0.90545 1.0936,1.65569 0.2117,0.75023 0.3175,1.7850398 0.3175,3.1067293 v 2.1449 h -4.7225 z m 0.3575,-5.9030893 c -0.1435,0.17638 -0.2375,0.46566 -0.2869,0.86782 -0.0471,0.40217 -0.0706,1.0112898 -0.0706,1.8297693 v 0.8984 h 2.0626 v -0.8984 c 0,-0.8043695 -0.0282,-1.4134893 -0.0823,-1.8297693 -0.0541,-0.41627 -0.1529,-0.7079 -0.2964,-0.87958 -0.1434,-0.16933 -0.3645,-0.25635 -0.6632,-0.25635 -0.301,0.00235 -0.5221,0.09172 -0.6632,0.26811 z"
       class="style-scope yt-icon"
       id="path20-7"
       style="display:block;fill:#ffffff" />
    <text
       xml:space="preserve"
       style="font-style:normal;font-weight:normal;font-size:40px;line-height:1.25;font-family:sans-serif;fill:#000000;fill-opacity:1;stroke:none"
       x="38.184284"
       y="11.932903"
       id="text1392"><tspan
         sodipodi:role="line"
         id="tspan1390"
         x="38.184284"
         y="11.932903" /></text>
    <g
       aria-label="M"
       transform="scale(0.91613951,1.0915368)"
       id="text229"
       style="font-size:25.3714px;line-height:1.25;font-family:'YouTube Sans';-inkscape-font-specification:'YouTube Sans';fill:#ffffff;stroke-width:0.634286">
      <path
         d="M 34.860405,17.013838 V 1.3089407 h 2.89234 L 42.725539,11.787329 47.672962,1.3089407 h 2.89234 V 17.013838 H 47.723705 V 7.3219627 L 43.588167,16.50641 H 41.83754 L 37.702002,7.3219627 v 9.6918753 z"
         id="path392" />
    </g>
  </g>
</svg>
